<svg width="331" height="217" viewBox="0 0 331 217" fill="none" xmlns="http://www.w3.org/2000/svg">
<g clip-path="url(#clip0_105_3131)">
<path d="M331 217.035H0V-17.1445H331V217.035Z" fill="white"/>
<path d="M243.099 126.401C242.995 126.401 242.892 126.352 242.823 126.27C242.706 126.118 242.733 125.905 242.878 125.788C247.698 121.972 251.043 118.039 252.822 114.085C252.898 113.913 253.105 113.838 253.277 113.913C253.449 113.989 253.525 114.196 253.449 114.368C251.622 118.425 248.209 122.447 243.312 126.325C243.244 126.373 243.168 126.401 243.099 126.401ZM258.428 115.649C258.256 115.649 258.111 115.525 258.083 115.353C258.056 115.167 258.187 114.995 258.38 114.967C264.531 114.079 269.227 112.054 272.323 108.94C272.454 108.81 272.675 108.81 272.806 108.94C272.944 109.078 272.944 109.292 272.813 109.429C269.606 112.646 264.786 114.74 258.476 115.649C258.458 115.649 258.442 115.649 258.428 115.649ZM242.802 115.525C242.779 115.525 242.759 115.525 242.74 115.525C239.789 114.974 237.134 113.734 235.065 111.93C233.038 110.16 231.714 107.983 231.245 105.627C231.203 105.442 231.328 105.262 231.514 105.228C231.7 105.187 231.879 105.311 231.921 105.497C232.838 110.049 237.237 113.803 242.864 114.843C243.05 114.878 243.175 115.057 243.14 115.243C243.113 115.415 242.968 115.525 242.802 115.525ZM252.636 99.4906C252.512 99.4906 252.394 99.4286 252.332 99.3115C250.339 95.5302 246.857 93.3606 242.775 93.3606C241.664 93.3606 240.561 93.5328 239.485 93.8634C239.306 93.9185 239.113 93.8221 239.051 93.6361C238.996 93.4571 239.099 93.2642 239.278 93.2091C240.416 92.8509 241.595 92.6719 242.775 92.6719C244.802 92.6719 246.774 93.2091 248.491 94.2216C250.353 95.3167 251.85 96.9215 252.939 98.9878C253.029 99.1531 252.967 99.3666 252.794 99.4493C252.746 99.4768 252.691 99.4906 252.636 99.4906Z" fill="#2E2E2E"/>
<path d="M51.0772 166.864C48.574 166.864 46.0708 165.996 44.0365 164.419C43.8848 164.302 43.8573 164.088 43.9745 163.937C44.0917 163.785 44.3055 163.758 44.4572 163.875C46.3742 165.356 48.7257 166.175 51.0772 166.175C53.7321 166.175 56.2629 165.17 58.4006 163.269C58.5385 163.138 58.7592 163.152 58.8833 163.296C59.0143 163.434 59.0005 163.655 58.8557 163.778C56.5939 165.797 53.9045 166.864 51.0772 166.864ZM80.812 161.45C80.681 161.45 80.55 161.375 80.4948 161.244C78.6881 157.249 75.0057 153.709 69.5511 150.726C69.3856 150.63 69.3236 150.423 69.4132 150.258C69.5029 150.093 69.7166 150.031 69.8821 150.12C75.4678 153.178 79.2536 156.822 81.1223 160.961C81.1982 161.134 81.1223 161.34 80.9499 161.416C80.904 161.439 80.858 161.45 80.812 161.45ZM41.1472 150.499C41.0851 150.499 41.0231 150.485 40.9679 150.451C40.8024 150.348 40.7541 150.134 40.8576 149.976C41.8988 148.295 43.478 146.897 45.4295 145.933C47.3879 144.968 49.6773 144.459 52.0495 144.459C53.0494 144.459 54.0769 144.548 55.0906 144.727C55.2768 144.762 55.4009 144.934 55.3664 145.127C55.3388 145.313 55.1595 145.437 54.9664 145.402C53.9941 145.23 53.0149 145.147 52.0495 145.147C47.4983 145.147 43.4297 147.131 41.4437 150.334C41.3748 150.444 41.2644 150.499 41.1472 150.499ZM64.3793 149.914C64.2 149.914 64.0483 149.776 64.0345 149.597C63.7517 145.271 62.0002 140.409 58.8281 135.154C58.7316 134.995 58.7798 134.782 58.9453 134.685C59.1108 134.582 59.3177 134.637 59.4212 134.802C62.6484 140.147 64.4344 145.113 64.724 149.549C64.7378 149.741 64.593 149.9 64.3999 149.914C64.3953 149.914 64.3885 149.914 64.3793 149.914Z" fill="#2E2E2E"/>
<path d="M120.484 58.1805C128.097 56.2726 138.124 57.9532 141.206 53.9102C142.841 55.9282 141.137 57.2231 141.137 57.2231C143.068 56.6239 144.358 55.8249 144.358 55.8249C146.84 60.3156 147.199 72.3965 145.489 76.1434C144.868 70.5713 143.944 64.5929 134.545 62.9536C125.153 61.3075 120.484 58.1805 120.484 58.1805Z" fill="#313438"/>
<path d="M170.493 96.8938C169.01 98.7879 147.336 124.823 147.336 124.823L176.706 129.658C176.706 129.658 190.07 109.643 191.539 102.845C192.311 99.2631 196.58 57.1866 196.58 57.1866C199.938 53.7497 201.634 47.5233 202.276 45.5397C203.179 42.7571 204.565 39.203 206.02 35.5526C206.599 34.0993 206.523 33.3761 205.958 32.8113C205.255 32.1226 203.965 32.2948 203.034 33.321C201.662 34.8363 200.034 38.0528 198.766 40.0296C198.752 40.0571 198.717 40.0364 198.724 40.0089C199.241 38.7553 201.779 32.4601 202.731 29.3951C203.22 27.8385 202.882 26.8191 202.172 26.3163C201.324 25.724 199.821 25.8548 199.241 27.2324C198.628 28.665 195.911 34.7605 194.58 37.6051C194.573 37.6258 194.545 37.612 194.545 37.5913C194.931 36.2138 197.062 28.4652 197.235 25.1592C197.331 23.4235 196.524 22.721 195.587 22.6383C194.076 22.4937 193.359 23.2789 192.987 24.3051C192.304 26.2199 190.663 34.3473 189.911 36.6477C189.884 36.7166 189.78 36.7028 189.78 36.6271C189.766 34.8225 190.215 29.1264 190.297 26.1648C190.387 22.9689 186.974 23.6715 186.594 25.4347C186.208 27.191 185.374 31.1583 185.139 33.6378C184.905 36.1174 184.174 42.2543 183.802 42.3094C182.933 41.3933 182.043 40.3808 181.574 37.8186C180.878 34.0304 177.271 33.7894 176.63 35.3184C175.989 36.8475 177.409 43.3356 178.195 46.9172C178.933 50.3059 179.754 51.6421 180.588 54.1698C180.912 55.1479 180.967 56.0777 180.892 56.8767C180.836 57.4415 171.224 93.7874 170.493 96.8938Z" fill="#FCA688"/>
<path d="M80.2746 97.6185C81.8537 99.12 112.919 122.841 112.919 122.841L78.9092 130.996C78.9092 130.996 61.4489 111.38 58.5389 105.064C57.0011 101.737 44.9541 63.3319 44.9541 63.3319C40.927 60.7008 37.9135 55.0048 36.8515 53.2071C35.362 50.6862 33.2381 47.5179 31.0176 44.267C30.135 42.979 30.0522 42.2558 30.4867 41.5808C31.0176 40.7612 32.3141 40.6441 33.445 41.443C35.1138 42.6277 37.4032 45.4103 39.072 47.0633C39.0927 47.084 39.1271 47.0564 39.1064 47.0358C38.3341 45.92 34.4793 40.3272 32.8795 37.5446C32.0727 36.1327 32.1761 35.0651 32.7623 34.4245C33.4588 33.6531 34.9483 33.4603 35.824 34.6725C36.7274 35.9398 40.7132 41.2984 42.6302 43.7848C42.644 43.7986 42.6716 43.7848 42.6578 43.7642C41.9889 42.5037 38.2169 35.4095 37.3204 32.2136C36.8515 30.5399 37.4859 29.6859 38.3824 29.3966C39.8236 28.9282 40.6994 29.5343 41.2786 30.4573C42.3682 32.1792 45.7402 39.7556 46.9815 41.8356C47.0229 41.8976 47.1194 41.8563 47.1056 41.7874C46.7194 40.0173 45.0369 34.5623 44.3128 31.6833C43.5267 28.5838 47.0091 28.5287 47.7676 30.1611C48.5331 31.8004 50.2087 35.4921 50.9811 37.8546C51.7465 40.2239 53.8015 46.0508 54.1738 46.0302C54.8221 44.9419 55.4703 43.7642 55.3737 41.1537C55.2289 37.3105 58.6906 36.2911 59.6491 37.6411C60.6077 38.991 60.6352 45.6376 60.6559 49.3087C60.6766 52.7732 60.1663 54.2609 59.8974 56.9057C59.8008 57.932 59.9112 58.8618 60.1939 59.6126C60.9456 61.6169 78.9437 94.9323 80.2746 97.6185Z" fill="#FCA688"/>
<path d="M146.309 77.4562C146.013 65.2238 142.779 59.6448 135.214 59.3349C130.697 59.1489 129.056 55.891 123.891 57.2066C120.939 57.9642 118.133 58.8872 115.74 59.8996C109.575 62.5032 104.396 66.1329 105.086 74.3154C96.2386 80.5832 100.831 93.0084 109.037 98.4566C118.133 104.497 122.401 104.952 127.753 99.3313C133.104 93.7041 146.309 77.4562 146.309 77.4562Z" fill="#313438"/>
<path d="M116.912 120.036C117.74 115.828 117.54 108.272 116.905 102.707C112.106 103.767 109.899 101.619 108.934 100.069C107.837 98.3125 107.872 95.3921 110.423 93.7116C111.554 92.9677 114.188 92.272 116.891 93.7873C117.264 89.1037 116.388 80.935 112.919 77.5188C121.753 76.9195 138.696 71.802 143.447 68.9023C146.916 76.0173 148.509 78.7723 150.84 86.8446C153.177 94.9651 151.495 102.893 147.426 106.392C145.957 107.652 143.827 108.651 141.123 109.188C141.234 112.322 141.385 118.163 142.454 122.894L138.262 130.932L116.912 120.036Z" fill="#FCA688"/>
<path d="M110.603 96.4732C110.547 96.4732 110.492 96.4594 110.444 96.4319C110.272 96.3423 110.21 96.1357 110.299 95.9704C110.706 95.1783 111.471 94.6273 112.396 94.4482C113.506 94.2278 114.719 94.5722 115.643 95.3643C115.788 95.4883 115.809 95.7087 115.685 95.8533C115.561 95.9979 115.34 96.0117 115.195 95.8877C114.43 95.2334 113.437 94.9441 112.533 95.1232C111.802 95.261 111.23 95.6742 110.906 96.2872C110.844 96.4043 110.727 96.4732 110.603 96.4732Z" fill="#CC5548"/>
<path d="M142.812 82.1831C143.199 83.2851 144.026 83.9946 144.674 83.7673C145.323 83.54 145.529 82.4724 145.15 81.3704C144.764 80.2753 143.93 79.5658 143.288 79.7862C142.64 80.0135 142.426 81.088 142.812 82.1831Z" fill="#313438"/>
<path d="M129.125 85.275C129.504 86.3701 129.29 87.4446 128.649 87.665C128.001 87.8923 127.166 87.1829 126.787 86.0877C126.401 84.9857 126.615 83.9112 127.263 83.6908C127.904 83.4635 128.739 84.173 129.125 85.275Z" fill="#313438"/>
<path d="M121.256 83.0273C121.224 83.0273 121.192 83.0227 121.16 83.0135C120.974 82.9584 120.87 82.7656 120.925 82.5865C121.45 80.7613 122.415 79.2873 123.808 78.206C124.987 77.2899 126.408 76.7182 127.918 76.5529C128.104 76.5323 128.276 76.6631 128.297 76.856C128.318 77.0419 128.18 77.2141 127.994 77.2348C126.828 77.3657 122.918 78.144 121.587 82.7724C121.546 82.924 121.408 83.0273 121.256 83.0273Z" fill="#313438"/>
<path d="M141.303 92.8992C141.151 92.8992 141.013 92.7959 140.972 92.6444C140.923 92.4584 141.034 92.2725 141.22 92.2242C142.027 92.0107 142.716 91.4941 143.027 90.8674C143.158 90.6056 143.282 90.1924 143.095 89.7585C142.799 89.0628 141.93 88.8011 141.006 88.5187C140.661 88.4154 140.303 88.3121 139.972 88.1812C137.896 87.3478 137.02 85.433 136.275 82.6229C136.227 82.4369 136.338 82.251 136.524 82.2027C136.71 82.1545 136.896 82.2647 136.944 82.4438C137.765 85.5639 138.627 86.8932 140.234 87.5407C140.53 87.6577 140.875 87.7611 141.199 87.8644C142.24 88.1743 143.309 88.498 143.73 89.4898C143.951 90.0133 143.923 90.6125 143.647 91.1773C143.254 91.9763 142.385 92.6306 141.392 92.8923C141.365 92.8969 141.335 92.8992 141.303 92.8992Z" fill="#CC5548"/>
<path d="M141.123 109.187C137.793 109.731 134.662 109.4 130.573 108.629C133.752 111.728 141.275 112.989 141.275 112.989C141.227 111.901 141.123 109.187 141.123 109.187Z" fill="#E08870"/>
<path d="M143.792 97.1211C143.482 100.028 139.758 102.431 137.117 102.294C134.318 102.149 132.407 100.971 131.904 98.1129C131.807 97.5619 132.021 96.9902 132.518 96.9696L143.248 96.391C143.592 96.3772 143.834 96.7216 143.792 97.1211Z" fill="#BC4842"/>
<path d="M117.036 103.022C116.885 103.022 116.74 102.912 116.705 102.754C116.657 102.568 116.774 102.389 116.96 102.341C117.478 102.223 118.009 102.072 118.546 101.886C118.726 101.824 118.926 101.92 118.988 102.1C119.05 102.279 118.953 102.471 118.774 102.533C118.209 102.726 117.657 102.892 117.119 103.016C117.091 103.02 117.064 103.022 117.036 103.022Z" fill="#CC5548"/>
<path d="M146.082 74.6953C146.02 74.6953 145.958 74.6816 145.902 74.6471C143.744 73.3523 140.848 73.5313 139.11 74.3785C138.938 74.4612 138.731 74.3923 138.648 74.2201C138.565 74.0479 138.641 73.8413 138.807 73.7586C140.655 72.8632 143.778 72.574 146.261 74.0548C146.426 74.1512 146.475 74.3647 146.378 74.53C146.316 74.6334 146.199 74.6953 146.082 74.6953Z" fill="#313438"/>
<path d="M143.792 97.1211C143.834 96.7216 143.592 96.3772 143.248 96.391L132.531 96.9627C132.035 96.9902 131.828 97.4862 131.89 98.0509C131.904 98.1956 131.925 98.3264 131.966 98.4573L143.641 97.8994C143.71 97.6515 143.765 97.3897 143.792 97.1211Z" fill="white"/>
<path d="M96.4318 154.701C91.9081 149.576 84.9089 141.401 76.6821 132.646C82.516 126.634 93.8596 114.208 97.3834 110.523C103.728 115.111 113.327 121.86 113.327 121.86L116.568 119.705L137.621 128.741L142.999 121.978L146.902 124.133C151.826 118.527 154.26 115.696 156.798 112.665C161.466 116.192 172.431 124.388 178.396 130.002L161.142 157.29C161.156 157.649 161.039 189.29 160.984 199.932L93.9631 199.642C94.5285 192.679 95.8801 166.403 96.4318 154.701Z" fill="#F6821F"/>
<path d="M131.352 137.38L113.354 122.269C113.209 122.152 113.195 121.931 113.313 121.787C113.437 121.642 113.657 121.621 113.802 121.745L131.262 136.402L137.676 128.571L143.42 132.759L146.164 124.363C146.219 124.184 146.413 124.087 146.599 124.142C146.778 124.204 146.875 124.397 146.819 124.576L143.778 133.875L137.8 129.508L131.352 137.38Z" fill="#B71104"/>
<path d="M161.129 157.634C160.936 157.634 160.784 157.483 160.784 157.297C160.777 155.651 160.756 153.715 160.639 151.78C160.625 151.587 160.77 151.429 160.963 151.415C161.149 151.401 161.315 151.546 161.322 151.739C161.446 153.688 161.467 155.644 161.473 157.29C161.473 157.483 161.322 157.634 161.129 157.634Z" fill="#B71104"/>
<path d="M77.9159 99.2578C77.7987 99.2578 77.6815 99.1958 77.6125 99.0787C77.5229 98.9134 77.5781 98.7068 77.7436 98.6103L79.8882 97.3981C80.0537 97.3086 80.2674 97.3637 80.3571 97.529C80.4536 97.6943 80.3916 97.9078 80.2261 97.9973L78.0883 99.2096C78.0332 99.244 77.9711 99.2578 77.9159 99.2578Z" fill="#CC5548"/>
<path d="M51.8706 53.984C51.7258 53.984 51.5879 53.8876 51.5396 53.7429C51.5259 53.7085 51.2224 52.7649 51.2983 51.4218C51.3604 50.182 51.7741 48.3568 53.367 46.6625C53.4981 46.5247 53.7118 46.5178 53.8566 46.6487C53.9946 46.7727 54.0015 46.9931 53.8704 47.1308C51.0983 50.0787 52.181 53.495 52.1947 53.5294C52.2568 53.7085 52.1534 53.9082 51.9741 53.9633C51.9373 53.9771 51.9028 53.984 51.8706 53.984Z" fill="#CC5548"/>
<path d="M39.2235 49.4672C39.1545 49.4672 39.0856 49.4465 39.0235 49.4052C38.8718 49.295 38.8304 49.0815 38.9408 48.9299C39.8027 47.6971 41.575 46.2782 43.6782 45.128C45.8642 43.9295 48.0295 43.2201 49.6155 43.1994C49.8086 43.1926 49.9672 43.3441 49.9672 43.5369C49.9672 43.7298 49.8155 43.8813 49.6293 43.8882C48.1536 43.9089 46.1055 44.5839 44.0092 45.7341C41.9956 46.8361 40.313 48.1792 39.5062 49.3225C39.4373 49.419 39.3338 49.4672 39.2235 49.4672Z" fill="#CC5548"/>
<path d="M187.718 49.578C187.705 49.578 187.693 49.578 187.684 49.578C187.491 49.5642 187.353 49.392 187.374 49.206C187.374 49.1923 187.456 48.2831 187.119 47.1122C186.67 45.5487 185.739 44.2745 184.346 43.324C184.188 43.2138 184.146 43.0003 184.257 42.8419C184.36 42.6904 184.574 42.649 184.733 42.7523C186.657 44.061 187.456 45.7553 187.794 46.9469C188.153 48.2487 188.063 49.2267 188.063 49.268C188.043 49.4471 187.891 49.578 187.718 49.578Z" fill="#CC5548"/>
<path d="M199.069 42.418C198.986 42.418 198.904 42.3905 198.842 42.3285C197.8 41.3849 195.869 40.4413 193.663 39.8007C191.366 39.1395 189.222 38.926 187.774 39.2291C187.588 39.2635 187.408 39.1464 187.367 38.9605C187.325 38.7745 187.45 38.5885 187.636 38.5541C189.187 38.2304 191.456 38.4439 193.856 39.1395C196.152 39.8076 198.193 40.8063 199.304 41.8188C199.441 41.9497 199.455 42.1632 199.324 42.3078C199.255 42.3836 199.166 42.418 199.069 42.418Z" fill="#CC5548"/>
<path d="M172.272 97.8999C172.231 97.8999 172.187 97.8931 172.141 97.8793L170.631 97.2663C170.452 97.1905 170.369 96.9908 170.438 96.8186C170.514 96.6395 170.714 96.5569 170.886 96.6257L172.403 97.2387C172.582 97.3076 172.665 97.5073 172.596 97.6864C172.541 97.8173 172.41 97.8999 172.272 97.8999Z" fill="#CC5548"/>
<path d="M61.2698 61.3203L63.2076 65.081L47.1816 71.1834L46.1128 67.4159L61.2698 61.3203Z" fill="#14489F"/>
<path d="M110.74 62.5113C114.864 59.9697 123.787 56.6981 126.559 55.8234C129.462 54.9073 132.076 53.4609 132.076 53.4609C132.262 55.4032 132.104 57.0907 128.456 58.792C124.801 60.4863 110.74 62.5113 110.74 62.5113Z" fill="#313438"/>
<path d="M105.431 74.7833C105.362 74.7833 105.286 74.7627 105.224 74.7076C102.934 72.903 102.389 70.3546 102.369 70.2444C102.334 70.0584 102.452 69.8794 102.638 69.838C102.824 69.8036 103.01 69.9207 103.045 70.1066C103.051 70.1342 103.569 72.5242 105.651 74.1703C105.796 74.2874 105.824 74.5078 105.706 74.6525C105.637 74.742 105.534 74.7833 105.431 74.7833Z" fill="#313438"/>
<path fill-rule="evenodd" clip-rule="evenodd" d="M130.138 92.801C127.435 92.801 124.601 90.5557 123.298 87.1188C121.725 82.9793 122.973 78.6539 126.077 77.483C127.594 76.9044 129.325 77.1593 130.931 78.1993C132.51 79.2187 133.793 80.8717 134.552 82.8622C135.303 84.8527 135.441 86.9397 134.938 88.7511C134.421 90.5901 133.297 91.9263 131.773 92.5049C131.242 92.7046 130.69 92.801 130.138 92.801ZM127.732 77.8687C127.242 77.8687 126.773 77.9513 126.318 78.1235C123.573 79.1635 122.511 83.0895 123.946 86.8777C125.146 90.0322 127.711 92.1123 130.124 92.1123C130.6 92.1123 131.076 92.0296 131.531 91.8574C132.841 91.3615 133.814 90.1906 134.269 88.5652C134.738 86.8983 134.607 84.956 133.903 83.1033C133.2 81.2505 132.014 79.7146 130.559 78.7778C129.628 78.1786 128.656 77.8687 127.732 77.8687Z" fill="#484848"/>
<path fill-rule="evenodd" clip-rule="evenodd" d="M146.033 88.7047C144.992 88.7047 143.902 88.3465 142.861 87.6509C141.316 86.6177 140.055 84.9578 139.296 82.9742C138.544 80.9837 138.393 78.9036 138.862 77.1128C139.344 75.2738 140.42 73.9583 141.896 73.4004C143.371 72.8356 145.054 73.1111 146.633 74.1649C148.178 75.1981 149.44 76.858 150.191 78.8485C150.95 80.8321 151.102 82.9122 150.633 84.7099C150.15 86.542 149.074 87.8644 147.599 88.4223C147.095 88.6083 146.571 88.7047 146.033 88.7047ZM143.454 73.8068C142.999 73.8068 142.558 73.8825 142.144 74.0409C140.882 74.5162 139.951 75.6733 139.53 77.285C139.089 78.938 139.241 80.8735 139.944 82.7262C140.648 84.579 141.82 86.1287 143.24 87.0792C144.633 88.0021 146.088 88.2501 147.35 87.7749C148.612 87.2996 149.543 86.1494 149.964 84.5308C150.398 82.8778 150.253 80.9423 149.55 79.0896C148.847 77.2368 147.674 75.694 146.247 74.7366C145.323 74.1236 144.364 73.8068 143.454 73.8068Z" fill="#484848"/>
<path d="M116.919 93.6635C116.823 93.6635 116.726 93.6222 116.657 93.5395C116.533 93.3949 116.554 93.1745 116.699 93.0505L123.643 87.3062C123.787 87.1891 124.001 87.2098 124.125 87.3544C124.249 87.4991 124.229 87.7195 124.077 87.8366L117.14 93.5808C117.078 93.6359 117.002 93.6635 116.919 93.6635Z" fill="#484848"/>
<path d="M134.545 83.5734L134.138 83.0155C135.262 82.2028 137.669 81.3487 139.193 81.4313L139.158 82.1201C137.814 82.0512 135.531 82.8571 134.545 83.5734Z" fill="#484848"/>
<path d="M105.024 73.171C104.968 68.8042 106.003 63.4594 111.657 60.2773C110.113 62.688 111.375 65.0229 111.375 65.0229L105.024 73.171Z" fill="#313438"/>
<path fill-rule="evenodd" clip-rule="evenodd" d="M115.429 168.465L107.885 162.5L108.154 150.633L124.242 151.356L123.856 163.485L115.429 168.465ZM108.589 162.176L115.484 167.631L123.187 163.086L123.539 152.01L108.83 151.356L108.589 162.176Z" fill="#B71104"/>
<path d="M96.5559 145.701C97.3282 145.701 99.3143 150.426 99.6453 152.788C100.542 159.2 98.7419 169.814 98.9833 178.224C99.1694 184.568 98.3833 199.872 98.3833 199.872L93.9907 199.335L96.4387 154.648L76.6821 132.649L81.6609 127.414C81.6609 127.414 91.9633 142.801 96.5559 145.701Z" fill="#DE6600"/>
<path d="M96.4385 154.625C96.4385 154.625 96.4362 154.625 96.4316 154.625C96.2455 154.618 96.0938 154.466 96.0938 154.273C96.1351 151.374 96.211 145.691 96.211 145.691L96.9006 145.705C96.9006 145.705 96.8247 151.387 96.7833 154.287C96.7833 154.473 96.6247 154.625 96.4385 154.625Z" fill="#B71104"/>
<path d="M78.5987 130.637L81.9225 127.131C71.5788 117.227 62.8969 108.962 60.7592 103.279C58.5387 97.3972 47.7812 72.3125 47.7812 72.3125C51.4429 83.8768 57.4768 102.776 58.5388 105.063C61.2143 110.876 76.2266 127.958 78.5987 130.637Z" fill="#F4907D"/>
<path d="M200 167.552H241.134C241.209 167.552 241.278 167.504 241.299 167.428L250.298 131.254C250.34 131.109 250.222 130.965 250.071 130.965H207.185C206.965 130.965 206.772 131.116 206.723 131.323L199.297 166.663C199.186 167.118 199.531 167.552 200 167.552Z" fill="white"/>
<path fill-rule="evenodd" clip-rule="evenodd" d="M241.133 167.897H198.627C198.296 167.897 197.993 167.752 197.786 167.491C197.586 167.229 197.517 166.898 197.593 166.581L206.385 131.241C206.475 130.876 206.806 130.621 207.185 130.621H250.07C250.25 130.621 250.415 130.704 250.525 130.842C250.636 130.986 250.677 131.165 250.636 131.337L241.637 167.511C241.575 167.738 241.375 167.897 241.133 167.897ZM207.185 131.31C207.123 131.31 207.068 131.351 207.054 131.406L198.262 166.747C198.234 166.857 198.262 166.974 198.331 167.07C198.407 167.16 198.51 167.208 198.627 167.208H240.995L249.932 131.31H207.185Z" fill="#2E2E2E"/>
<path fill-rule="evenodd" clip-rule="evenodd" d="M232.679 165.871H209.612C209.385 165.871 209.171 165.768 209.026 165.589C208.882 165.403 208.833 165.169 208.888 164.941L213.819 145.132C213.888 144.857 214.129 144.664 214.412 144.664H237.692C237.844 144.664 237.975 144.733 238.065 144.85C238.161 144.967 238.189 145.112 238.154 145.256L233.107 165.54C233.058 165.733 232.886 165.871 232.679 165.871ZM214.474 145.353L209.557 165.113C209.55 165.134 209.564 165.148 209.571 165.162C209.578 165.169 209.592 165.182 209.612 165.182H232.486L237.416 145.353H214.474Z" fill="#2E2E2E"/>
<path d="M139.372 200.343C139.372 200.343 136.779 199.606 136.779 198.304C136.779 197.002 137.324 195.508 142.785 195.632C148.247 195.756 182.581 195.611 182.581 195.611L193.014 154.582C193.014 154.582 192.518 152.164 195.704 152.164C198.89 152.164 240.602 152.591 256.504 152.508C257.152 152.508 257.759 152.956 257.718 154.196C257.677 155.436 246.843 199.413 246.843 199.413C246.843 199.413 246.657 200.074 245.788 200.198C244.912 200.322 139.372 200.343 139.372 200.343Z" fill="#313438"/>
<path d="M255.208 155.946C255.29 155.539 255.228 155.064 254.98 154.761C254.463 154.134 253.47 154.107 252.656 154.107C245.423 154.12 196.924 154.189 193.104 154.189C193.049 153.728 193.021 151.875 195.807 151.875C198.993 151.875 241.609 152.467 256.773 152.385C257.421 152.385 258.242 152.564 257.876 154.162C257.208 157.11 246.381 199.427 246.381 199.427C246.381 199.427 246.76 199.792 245.891 199.916C245.843 199.923 244.954 199.93 244.367 199.93C246.326 192.188 254.822 157.798 255.208 155.946Z" fill="white"/>
<path d="M244.83 200.501H139.247C137.62 200.501 136.393 199.371 136.393 197.863C136.393 196.341 137.641 195.225 139.365 195.218H182.002L192.263 154.016C192.669 152.453 193.456 151.695 194.669 151.695H255.711C255.904 151.695 256.056 151.847 256.056 152.04C256.056 152.226 255.904 152.384 255.711 152.384H194.669C193.78 152.384 193.263 152.921 192.932 154.182L182.54 195.907H139.365C138.02 195.914 137.082 196.72 137.082 197.863C137.082 198.979 138.013 199.812 139.247 199.812H244.83C245.429 199.812 246.257 199.633 246.56 198.035L246.567 198.015L256.877 156.517C256.918 156.331 257.104 156.22 257.29 156.262C257.477 156.31 257.587 156.496 257.545 156.682L247.236 198.173C246.94 199.716 246.133 200.501 244.83 200.501Z" fill="#2E2E2E"/>
<path d="M224.556 180.617C226.252 177.69 225.673 174.198 223.28 172.814C220.881 171.429 217.564 172.683 215.874 175.61C214.178 178.537 214.75 182.029 217.15 183.414C219.55 184.798 222.867 183.545 224.556 180.617Z" fill="white"/>
<path fill-rule="evenodd" clip-rule="evenodd" d="M219.287 184.316C218.481 184.316 217.694 184.123 216.977 183.71C214.419 182.236 213.791 178.523 215.57 175.438C216.432 173.95 217.715 172.827 219.184 172.276C220.687 171.712 222.197 171.794 223.452 172.517C224.701 173.241 225.535 174.508 225.79 176.085C226.045 177.635 225.714 179.309 224.859 180.789C223.57 183.014 221.377 184.316 219.287 184.316ZM221.128 172.593C220.577 172.593 220.004 172.703 219.432 172.917C218.108 173.42 216.95 174.432 216.17 175.782C214.577 178.537 215.095 181.829 217.322 183.117C219.556 184.399 222.666 183.207 224.259 180.445C225.038 179.102 225.342 177.587 225.114 176.195C224.887 174.825 224.176 173.73 223.108 173.117C222.508 172.765 221.832 172.593 221.128 172.593Z" fill="#2E2E2E"/>
<path fill-rule="evenodd" clip-rule="evenodd" d="M217.26 140.355L218.467 134.59H220.025C220.458 134.59 220.733 134.597 220.853 134.611C221.092 134.633 221.306 134.682 221.494 134.755C221.678 134.829 221.848 134.932 222.005 135.065C222.156 135.198 222.287 135.357 222.398 135.54C222.513 135.729 222.6 135.942 222.66 136.181C222.719 136.424 222.749 136.691 222.749 136.98C222.749 137.6 222.63 138.151 222.391 138.633C222.156 139.115 221.86 139.496 221.501 139.776C221.225 139.997 220.869 140.16 220.432 140.265C220.184 140.325 219.805 140.355 219.295 140.355H217.26ZM218.639 139.425H219.246C219.678 139.425 219.993 139.397 220.191 139.342C220.384 139.292 220.563 139.193 220.729 139.046C220.959 138.83 221.154 138.546 221.315 138.192C221.476 137.839 221.556 137.423 221.556 136.945C221.556 136.537 221.49 136.229 221.356 136.022C221.223 135.816 221.06 135.678 220.867 135.609C220.733 135.563 220.492 135.54 220.143 135.54H219.453L218.639 139.425Z" fill="#319A00"/>
<path fill-rule="evenodd" clip-rule="evenodd" d="M223.218 138.62C223.218 137.848 223.437 137.231 223.873 136.767C224.31 136.308 224.885 136.078 225.597 136.078C226.213 136.078 226.694 136.248 227.039 136.588C227.383 136.928 227.556 137.384 227.556 137.958C227.556 138.633 227.34 139.219 226.908 139.715C226.475 140.206 225.896 140.452 225.17 140.452C224.774 140.452 224.425 140.374 224.122 140.218C223.818 140.057 223.591 139.834 223.439 139.549C223.292 139.26 223.218 138.95 223.218 138.62ZM226.439 137.814C226.439 137.547 226.36 137.334 226.204 137.173C226.048 137.013 225.846 136.932 225.597 136.932C225.354 136.932 225.138 137.006 224.949 137.153C224.761 137.304 224.614 137.525 224.508 137.814C224.402 138.098 224.349 138.363 224.349 138.606C224.349 138.904 224.432 139.141 224.597 139.315C224.758 139.49 224.963 139.577 225.211 139.577C225.519 139.577 225.779 139.446 225.99 139.184C226.289 138.808 226.439 138.351 226.439 137.814Z" fill="#319A00"/>
<path d="M228.866 136.181H229.935L229.825 136.719C230.091 136.489 230.342 136.326 230.576 136.23C230.806 136.129 231.05 136.078 231.307 136.078C231.652 136.078 231.923 136.177 232.121 136.374C232.319 136.572 232.417 136.833 232.417 137.159C232.417 137.306 232.374 137.584 232.286 137.993L231.797 140.355H230.666L231.162 137.986C231.236 137.628 231.273 137.417 231.273 137.352C231.273 137.205 231.229 137.091 231.142 137.008C231.059 136.925 230.942 136.884 230.79 136.884C230.624 136.884 230.441 136.955 230.238 137.097C230.036 137.235 229.877 137.417 229.762 137.642C229.68 137.807 229.585 138.14 229.48 138.64L229.121 140.355H227.99L228.866 136.181Z" fill="#319A00"/>
<path fill-rule="evenodd" clip-rule="evenodd" d="M236.969 138.613H234.134C234.13 138.659 234.128 138.693 234.128 138.716C234.128 138.996 234.208 139.221 234.369 139.391C234.525 139.561 234.718 139.646 234.948 139.646C235.325 139.646 235.617 139.451 235.824 139.06L236.838 139.233C236.64 139.637 236.378 139.942 236.052 140.149C235.721 140.351 235.35 140.452 234.941 140.452C234.38 140.452 233.923 140.275 233.569 139.921C233.22 139.563 233.045 139.093 233.045 138.509C233.045 137.94 233.204 137.433 233.521 136.987C233.953 136.381 234.571 136.078 235.376 136.078C235.886 136.078 236.293 136.237 236.596 136.553C236.895 136.87 237.045 137.313 237.045 137.883C237.045 138.154 237.019 138.397 236.969 138.613ZM236.017 137.931C236.017 137.88 236.017 137.841 236.017 137.814C236.017 137.506 235.948 137.274 235.81 137.118C235.672 136.962 235.486 136.884 235.252 136.884C235.017 136.884 234.808 136.974 234.624 137.153C234.44 137.327 234.314 137.587 234.245 137.931H236.017Z" fill="#319A00"/>
<path d="M49.5879 189.555L114.45 189.706L114.354 192.02L113.367 193.302L113.898 194.831L113.602 200.348L50.3326 200.031L50.443 195.878L49.5879 189.555Z" fill="white"/>
<path fill-rule="evenodd" clip-rule="evenodd" d="M113.926 200.692H49.988V196.153L49.6294 189.148L49.9949 189.155L114.809 189.362L114.698 192.145L113.754 193.364L114.243 194.782L113.926 200.692ZM50.6776 200.003H113.278L113.554 194.872L112.981 193.233L114.016 191.897L114.092 190.044L50.3604 189.837L50.6776 196.139V200.003Z" fill="#2E2E2E"/>
<path d="M113.278 193.687L92.942 193.439C92.7489 193.439 92.5972 193.28 92.5972 193.094C92.5972 192.902 92.7558 192.75 92.942 192.75C92.942 192.75 92.9443 192.75 92.9489 192.75L113.285 192.998C113.478 192.998 113.629 193.156 113.623 193.342C113.623 193.535 113.471 193.687 113.278 193.687Z" fill="#2E2E2E"/>
<path d="M50.4014 196.408C50.2083 196.408 50.0566 196.256 50.0566 196.07C50.0566 195.878 50.2083 195.726 50.4014 195.719L62.3795 195.664C62.5726 195.664 62.7243 195.816 62.7243 196.002C62.7312 196.194 62.5726 196.353 62.3864 196.353L50.4014 196.408Z" fill="#2E2E2E"/>
<path d="M108.588 177.055L55.063 177.227L55.9526 184.445L55.5112 186.222L55.7595 189.556L108.975 189.177L107.878 181.559L108.588 177.055Z" fill="white"/>
<path fill-rule="evenodd" clip-rule="evenodd" d="M108.961 189.898H55.4423L55.1664 186.193L55.6009 184.423L54.6699 176.881L108.616 176.633L108.313 181.867L108.961 189.898ZM56.0836 189.21H108.216L107.63 181.874L107.885 177.322L55.456 177.563L56.3042 184.464L55.8629 186.248L56.0836 189.21Z" fill="#2E2E2E"/>
<path d="M56.0215 184.842C55.8354 184.842 55.6837 184.691 55.6768 184.498C55.6768 184.312 55.8285 184.153 56.0215 184.153L72.7991 183.871C72.8037 183.871 72.806 183.871 72.806 183.871C72.9922 183.871 73.1508 184.016 73.1508 184.209C73.1577 184.395 73.006 184.553 72.8129 184.56L56.0284 184.842C56.0284 184.842 56.0261 184.842 56.0215 184.842Z" fill="#2E2E2E"/>
<path d="M107.913 182.128C107.913 182.128 107.91 182.128 107.906 182.128L102.803 182.052C102.617 182.052 102.465 181.894 102.465 181.708C102.465 181.515 102.623 181.363 102.817 181.363L107.919 181.439C108.106 181.439 108.264 181.597 108.257 181.783C108.257 181.976 108.099 182.128 107.913 182.128Z" fill="#2E2E2E"/>
<path d="M278.744 151.544C278.744 151.544 278.84 145.338 278.592 142.5C278.351 139.663 276.799 135.055 275.82 132.706C274.848 130.358 271.71 126.562 269.49 126.562C266.773 127.809 264.911 134.297 265.738 138.995C266.559 143.685 267.669 149.326 267.973 150.332C268.269 151.337 270.924 159.389 270.924 159.389L272.11 169.348L272.144 174.893L274.137 174.741C274.137 174.741 274.172 162.86 274.882 160.939C275.592 159.017 277.096 153.534 277.096 153.534L278.744 151.544Z" fill="white"/>
<path d="M271.965 175.143C272.351 163.413 270.779 152.558 265.738 146.704C260.704 140.856 256.656 138.948 250.946 139.368C250.112 144.548 254.111 150.76 258.966 156.973C263.814 163.193 268.096 170.783 268.275 174.895L271.965 175.143Z" fill="white"/>
<path d="M274.441 175.143C273.337 166.182 276.461 156.065 278.744 152.042C281.033 148.02 283.385 144.411 292.37 145.086C293.28 149.129 289.536 156.76 285.281 162.594C281.874 167.271 278.854 172.884 278.764 174.895L274.441 175.143Z" fill="white"/>
<path d="M264.945 175.145H282.522L281.667 200.346H265.8L264.945 175.145Z" fill="url(#paint0_linear_105_3131)"/>
<path d="M282.012 175.145L281.157 200.346H280.185L281.04 175.145H282.012Z" fill="white"/>
<path d="M264.945 175.145H282.522L281.667 200.346H265.8L264.945 175.145Z" fill="#14489F"/>
<path d="M278.964 175.145H282.523L281.668 200.346H278.558L278.964 175.145Z" fill="white"/>
<path d="M271.965 175.487C271.96 175.487 271.954 175.487 271.944 175.487C271.751 175.473 271.606 175.308 271.62 175.122C271.979 169.419 271.648 163.847 270.669 159.012C269.614 153.825 267.814 149.645 265.476 146.931C260.897 141.607 256.291 139.306 250.988 139.713C250.388 143.453 253.305 149.486 259.228 156.76C261.849 159.969 263.966 163.076 265.531 166.003C267.234 169.199 268.276 172.181 268.621 174.853C268.641 175.039 268.51 175.212 268.324 175.239C268.131 175.26 267.959 175.129 267.938 174.943C267.297 169.956 264.097 163.819 258.697 157.194C255.587 153.378 253.284 149.9 251.871 146.855C250.457 143.825 249.947 141.29 250.36 139.32L250.409 139.072L250.664 139.045C253.401 138.797 255.925 139.224 258.387 140.367C261.021 141.586 263.511 143.584 266 146.483C268.414 149.287 270.262 153.571 271.344 158.874C272.337 163.771 272.668 169.405 272.31 175.163C272.296 175.342 272.144 175.487 271.965 175.487Z" fill="#2E2E2E"/>
<path d="M278.496 151.89C278.486 151.89 278.475 151.89 278.461 151.89C278.268 151.869 278.13 151.697 278.158 151.504C278.785 145.946 278.165 140.057 276.448 135.346C274.793 130.786 272.276 127.728 269.524 126.929C266.876 128.293 266.18 132.295 266.062 135.429C265.918 139.355 266.607 144.383 267.945 149.238C267.993 149.424 267.89 149.61 267.704 149.665C267.517 149.714 267.331 149.603 267.283 149.424C265.924 144.507 265.228 139.396 265.373 135.401C265.552 130.566 266.924 127.405 269.338 126.254L269.455 126.199L269.579 126.234C271.131 126.647 272.593 127.666 273.91 129.264C275.172 130.786 276.241 132.749 277.096 135.105C278.847 139.919 279.482 145.925 278.84 151.587C278.82 151.759 278.668 151.89 278.496 151.89Z" fill="#2E2E2E"/>
<path d="M274.434 175.488C274.268 175.488 274.116 175.357 274.096 175.185C273.579 170.949 273.758 166.293 274.613 161.719C275.399 157.539 276.675 153.861 278.206 151.367C280.454 147.696 283.46 146.036 285.591 145.292C288.067 144.425 290.729 144.321 292.708 145.01L292.921 145.086L292.935 145.313C293.266 149.356 290.646 155.562 285.564 162.794C281.833 168.104 278.957 173.422 278.875 175.157C278.868 175.35 278.709 175.495 278.516 175.488C278.323 175.474 278.178 175.316 278.185 175.123C278.282 172.994 281.688 167.112 285.005 162.394C287.529 158.806 289.439 155.472 290.68 152.497C291.825 149.756 292.356 147.435 292.266 145.596C290.453 145.031 288.067 145.155 285.819 145.94C283.798 146.649 280.936 148.227 278.792 151.726C276.013 156.258 273.661 165.99 274.778 175.102C274.806 175.288 274.668 175.46 274.482 175.481C274.468 175.486 274.452 175.488 274.434 175.488Z" fill="#2E2E2E"/>
<path fill-rule="evenodd" clip-rule="evenodd" d="M281.998 200.691H265.462L264.586 174.801H282.874L281.998 200.691ZM266.131 200.003H281.336L282.164 175.483H265.304L266.131 200.003Z" fill="#1A1A1A"/>
<path d="M78.1297 20.7607C83.3982 12.9019 94.0453 10.7943 101.913 16.0565C109.782 21.3186 111.892 31.9531 106.623 39.8119C101.355 47.6707 90.7077 49.7783 82.8396 44.5161C74.9715 39.254 72.8613 28.6195 78.1297 20.7607Z" fill="white"/>
<path d="M92.3419 47.7586C88.9147 47.7586 85.5633 46.7461 82.6464 44.8038C81.2465 43.8671 79.9984 42.7444 78.9295 41.4633C78.8054 41.3187 78.8261 41.0982 78.9709 40.9743C79.1226 40.8572 79.3364 40.8778 79.4605 41.0225C80.4811 42.2485 81.6878 43.3298 83.0325 44.2321C90.7283 49.3772 101.182 47.3109 106.334 39.6174C111.492 31.9308 109.423 21.4892 101.72 16.3441C97.9896 13.8508 93.5142 12.9554 89.1147 13.8233C84.7082 14.698 80.9155 17.2257 78.4192 20.952C75.916 24.6782 75.0265 29.1551 75.8953 33.5563C75.9367 33.7423 75.8126 33.9213 75.6264 33.9627C75.4402 33.9971 75.2609 33.8731 75.2196 33.6872C74.3093 29.1069 75.2402 24.4509 77.84 20.5662C80.4397 16.6885 84.3979 14.0574 88.9767 13.1483C93.5625 12.246 98.224 13.1758 102.106 15.7725C105.989 18.3622 108.623 22.3157 109.533 26.896C110.437 31.4694 109.506 36.1254 106.913 40.0031C104.313 43.8809 100.355 46.5119 95.776 47.4211C94.6313 47.6484 93.4797 47.7586 92.3419 47.7586Z" fill="#2E2E2E"/>
<path d="M80.7296 43.1983C80.6468 43.1983 80.5641 43.1639 80.4951 43.1088C77.0679 39.9336 75.075 35.6151 74.9026 30.9521C74.8957 30.7593 75.0405 30.6009 75.2336 30.594C75.4198 30.5871 75.5784 30.7317 75.5922 30.9246C75.7577 35.4084 77.6678 39.5548 80.964 42.5991C81.1019 42.73 81.1157 42.9504 80.9847 43.0881C80.9158 43.157 80.8261 43.1983 80.7296 43.1983Z" fill="#2E2E2E"/>
<path d="M91.6383 37.2133L103.32 24.6365L100.961 22.4531L89.4592 34.8508L84.0253 28.8862L81.6738 31.0695L87.2663 37.2064L89.4661 39.5551L91.6383 37.2133Z" fill="#625AF9"/>
<path d="M89.4385 39.5556L81.6738 31.0701L84.0253 28.8867L89.4592 34.8514L89.4385 39.5556Z" fill="#319A00"/>
<path d="M89.4659 39.5551L103.32 24.6365L100.961 22.4531L89.459 34.8508L89.4659 39.5551Z" fill="#319A00"/>
<path fill-rule="evenodd" clip-rule="evenodd" d="M34.1413 119.094C33.7069 119.094 33.2931 118.908 33.0104 118.57C32.6587 118.157 32.5622 117.606 32.7414 117.103L38.5271 101.082C38.7063 100.573 39.1339 100.215 39.6649 100.118C40.1958 100.022 40.7199 100.215 41.0647 100.621L52.0705 113.632C52.4153 114.045 52.5118 114.596 52.3325 115.099C52.1463 115.608 51.7257 115.967 51.1947 116.063L34.4102 119.073C34.3183 119.087 34.2287 119.094 34.1413 119.094ZM39.9269 101.2C39.8993 101.2 39.8763 101.2 39.8579 101.2C39.789 101.213 39.6304 101.262 39.5614 101.454L33.7827 117.475C33.7138 117.668 33.8103 117.806 33.8517 117.854C33.8931 117.909 34.0172 118.026 34.2172 117.985L50.9947 114.975C51.1947 114.94 51.2706 114.789 51.2912 114.727C51.3188 114.665 51.3533 114.5 51.2223 114.348L40.2234 101.337C40.1269 101.22 40.0097 101.2 39.9269 101.2Z" fill="white"/>
<path fill-rule="evenodd" clip-rule="evenodd" d="M301.038 126.557C300.81 126.557 300.576 126.495 300.369 126.378L287.86 119.167C287.439 118.926 287.191 118.485 287.191 118.003C287.191 117.514 287.439 117.08 287.86 116.839L300.369 109.627C300.789 109.379 301.293 109.379 301.714 109.627C302.134 109.868 302.389 110.302 302.389 110.791V125.214C302.389 125.696 302.134 126.13 301.714 126.378C301.5 126.495 301.272 126.557 301.038 126.557ZM301.038 110.543C301.003 110.543 300.962 110.557 300.92 110.578L288.411 117.789C288.308 117.851 288.294 117.948 288.294 118.003C288.294 118.051 288.308 118.147 288.411 118.209L300.92 125.421C301.024 125.483 301.114 125.448 301.162 125.421C301.21 125.393 301.286 125.331 301.286 125.214V110.791C301.286 110.667 301.21 110.605 301.162 110.578C301.134 110.564 301.093 110.543 301.038 110.543Z" fill="white"/>
<path fill-rule="evenodd" clip-rule="evenodd" d="M132.441 40.2315C132.2 40.2315 131.959 40.1695 131.738 40.0386C131.29 39.7838 131.028 39.3292 131.028 38.8195V23.1984C131.028 22.6887 131.29 22.2272 131.738 21.9724C132.179 21.7175 132.704 21.7175 133.152 21.9724L146.688 29.7829C147.136 30.0378 147.399 30.4993 147.399 31.0089C147.399 31.5186 147.136 31.9732 146.688 32.228L133.152 40.0386C132.924 40.1695 132.683 40.2315 132.441 40.2315ZM132.441 22.8884C132.373 22.8884 132.317 22.916 132.29 22.9298C132.242 22.9573 132.131 23.0331 132.131 23.1984V38.8195C132.131 38.9779 132.242 39.0606 132.29 39.0812C132.331 39.1088 132.455 39.1639 132.6 39.0812L146.137 31.2776C146.281 31.1949 146.295 31.0572 146.295 31.0089C146.295 30.9538 146.281 30.8161 146.137 30.7403L132.6 22.9298C132.545 22.8953 132.49 22.8884 132.441 22.8884Z" fill="white"/>
<path d="M299.148 200.895H39.3407C39.0373 200.895 38.7891 200.647 38.7891 200.344C38.7891 200.041 39.0373 199.793 39.3407 199.793H299.148C299.452 199.793 299.7 200.041 299.7 200.344C299.7 200.647 299.452 200.895 299.148 200.895Z" fill="#2E2E2E"/>
</g>
<defs>
<linearGradient id="paint0_linear_105_3131" x1="280.806" y1="170.16" x2="261.589" y2="173.97" gradientUnits="userSpaceOnUse">
<stop offset="0.006" stop-color="#8469FF"/>
<stop offset="1" stop-color="#6A46BA"/>
</linearGradient>
<clipPath id="clip0_105_3131">
<rect width="331" height="217" fill="white"/>
</clipPath>
</defs>
</svg>
